<?xml version="1.0" encoding="utf-8"?>
<!-- Generator: Adobe Illustrator 23.0.3, SVG Export Plug-In . SVG Version: 6.00 Build 0)  -->
<svg version="1.1" id="Layer_1" xmlns="http://www.w3.org/2000/svg" xmlns:xlink="http://www.w3.org/1999/xlink" x="0px" y="0px"
	 viewBox="0 0 300 300" style="enable-background:new 0 0 300 300;" xml:space="preserve">
<style type="text/css">
	.st0{clip-path:url(#SVGID_2_);fill:url(#SVGID_3_);}
	.st1{fill:#5FB9E9;}
	.st2{opacity:0.8;fill:#5FB9E9;}
	.st3{opacity:0.8;fill:#FFFFFF;}
	.st4{clip-path:url(#SVGID_5_);}
	.st5{fill:#8C8E90;}
	.st6{opacity:0.5;fill:#FFFFFF;}
	.st7{clip-path:url(#SVGID_8_);fill:url(#SVGID_9_);}
	.st8{fill:#C5C5C5;}
	.st9{opacity:0.8;fill:#C5C5C5;}
	.st10{clip-path:url(#SVGID_11_);fill:url(#SVGID_12_);}
	.st11{clip-path:url(#SVGID_14_);fill:url(#SVGID_15_);}
	.st12{clip-path:url(#SVGID_17_);fill:url(#SVGID_18_);}
	.st13{fill:#0A2342;}
	.st14{clip-path:url(#SVGID_20_);fill:url(#SVGID_21_);}
	.st15{clip-path:url(#SVGID_23_);fill:url(#SVGID_24_);}
	.st16{fill:#FFFFFF;}
	.st17{clip-path:url(#SVGID_26_);fill:url(#SVGID_27_);}
	.st18{clip-path:url(#SVGID_29_);fill:url(#SVGID_30_);}
	.st19{fill:#60B9E8;}
	.st20{opacity:0.8;fill:#60B9E8;}
	.st21{clip-path:url(#SVGID_32_);fill:url(#SVGID_33_);}
</style>
<g>
	<defs>
		<path id="SVGID_10_" d="M225.25,92.5c0,0-40.74-106.41-141.87-72.85c0,0,56.56,4.79,80.04,37.87c0,0-100.65-52.24-153.86,49.37
			c0,0,38.82-37.39,81.96-32.11c0,0-107.36,39.36-72.85,143.31c0,0,0-51.76,37.87-81c0,0-54.16,95.86,46.49,154.34
			c0,0-32.59-39.78-30.2-83.4c0,0,36.43,108.32,143.31,74.77c0,0-56.08-3.83-80.52-37.39c0,0,107.36,49.85,153.38-47.93
			c0,0-36.91,36.43-82.44,29.72c0,0,106.89-33.55,74.29-141.87c0,0-8.63,74.77-35.47,80.04c0,0,46.97-104.63-49.37-152.25
			C196.01,13.11,238.19,69.5,225.25,92.5z"/>
	</defs>
	<clipPath id="SVGID_2_">
		<use xlink:href="#SVGID_10_"  style="overflow:visible;"/>
	</clipPath>
	<linearGradient id="SVGID_3_" gradientUnits="userSpaceOnUse" x1="150.5505" y1="301.4307" x2="150.5505" y2="-2.7149">
		<stop  offset="0" style="stop-color:#FFDE17"/>
		<stop  offset="0" style="stop-color:#5FB9E9"/>
		<stop  offset="0.2681" style="stop-color:#42789B"/>
		<stop  offset="0.5148" style="stop-color:#2B506F"/>
		<stop  offset="0.7267" style="stop-color:#193855"/>
		<stop  offset="0.8954" style="stop-color:#0E2946"/>
		<stop  offset="1" style="stop-color:#0A2342"/>
	</linearGradient>
	<circle class="st0" cx="150.55" cy="149.36" r="152.07"/>
</g>
<circle class="st1" cx="48.33" cy="100.88" r="6.67"/>
<circle class="st1" cx="209.63" cy="31.3" r="6.67"/>
<circle class="st1" cx="239.87" cy="227.11" r="10.22"/>
<circle class="st2" cx="149.28" cy="152.26" r="60.36"/>
<circle class="st3" cx="149.28" cy="152.26" r="30.18"/>
</svg>
